<mxfile host="app.diagrams.net" modified="2023-11-02T07:02:01.603Z" agent="Mozilla/5.0 (Macintosh; Intel Mac OS X 10_15_7) AppleWebKit/605.1.15 (KHTML, like Gecko) Version/17.0 Safari/605.1.15" version="22.0.8" etag="mGWYTEAzstNXaadXTEGT" type="github">
  <diagram name="第 1 页" id="VOIXElQQoLBPa3Zr150k">
    <mxGraphModel>
      <root>
        <mxCell id="0" />
        <mxCell id="1" parent="0" />
        <mxCell id="2" value="" style="ellipse;fillColor=strokeColor;" vertex="1" parent="1">
          <mxGeometry x="69" y="8" width="14" height="14" as="geometry" />
        </mxCell>
        <mxCell id="3" value="BorrowBook" style="rounded=1;absoluteArcSize=1;arcSize=14;whiteSpace=wrap;strokeWidth=2;" vertex="1" parent="1">
          <mxGeometry x="26" y="72" width="100" height="34" as="geometry" />
        </mxCell>
        <mxCell id="4" value="UpdateBookInfos" style="rounded=1;absoluteArcSize=1;arcSize=14;whiteSpace=wrap;strokeWidth=2;" vertex="1" parent="1">
          <mxGeometry x="8" y="156" width="135" height="34" as="geometry" />
        </mxCell>
        <mxCell id="5" value="" style="ellipse;shape=endState;fillColor=strokeColor;" vertex="1" parent="1">
          <mxGeometry x="69" y="239" width="14" height="14" as="geometry" />
        </mxCell>
        <mxCell id="6" value="" style="curved=1;startArrow=none;;exitX=0.46986607142857145;exitY=1;entryX=0.49578125;entryY=0;" edge="1" parent="1" source="2" target="3">
          <mxGeometry relative="1" as="geometry">
            <Array as="points" />
          </mxGeometry>
        </mxCell>
        <mxCell id="7" value="" style="curved=1;startArrow=none;;exitX=0.49578125;exitY=0.9880514705882353;entryX=0.5005787037037037;entryY=-0.011948529411764705;" edge="1" parent="1" source="3" target="4">
          <mxGeometry relative="1" as="geometry">
            <Array as="points" />
          </mxGeometry>
        </mxCell>
        <mxCell id="8" value="" style="curved=1;startArrow=none;;exitX=0.5005787037037037;exitY=0.9761029411764706;entryX=0.46986607142857145;entryY=0.013392857142857142;" edge="1" parent="1" source="4" target="5">
          <mxGeometry relative="1" as="geometry">
            <Array as="points" />
          </mxGeometry>
        </mxCell>
      </root>
    </mxGraphModel>
  </diagram>
</mxfile>
